<?xml version="1.0" standalone="no"?><!DOCTYPE svg PUBLIC "-//W3C//DTD SVG 1.1//EN" "http://www.w3.org/Graphics/SVG/1.1/DTD/svg11.dtd"><svg t="1504920797948" class="icon" style="" viewBox="0 0 1024 1024" version="1.1" xmlns="http://www.w3.org/2000/svg" p-id="9834" xmlns:xlink="http://www.w3.org/1999/xlink" width="128" height="128"><defs><style type="text/css"></style></defs><path d="M512 0C229.376 0 0 229.376 0 512s229.376 512 512 512 512-229.376 512-512S794.624 0 512 0zM783.36 541.184c-6.144 6.144-15.36 10.24-25.088 10.24l-213.504-0.512-1.024 212.48c0 9.728-4.096 18.432-10.24 24.576-6.144 6.144-15.36 10.24-25.088 10.24-19.456 0-34.816-15.872-34.816-35.328l1.024-212.48-212.992-0.512c-19.456 0-34.816-15.872-34.816-35.328 0-19.456 15.872-34.816 35.328-34.816l213.504 0.512 1.024-212.48c0-19.456 15.872-34.816 35.328-34.816 19.456 0 34.816 15.872 34.816 35.328l-1.024 212.48 212.992 0.512c19.456 0 34.816 15.872 34.816 35.328C793.6 526.336 789.504 535.04 783.36 541.184z" p-id="9835" fill="#515151"></path></svg>