<?xml version="1.0" standalone="no"?><!DOCTYPE svg PUBLIC "-//W3C//DTD SVG 1.1//EN" "http://www.w3.org/Graphics/SVG/1.1/DTD/svg11.dtd"><svg t="1504766299445" class="icon" style="" viewBox="0 0 1024 1024" version="1.1" xmlns="http://www.w3.org/2000/svg" p-id="6018" xmlns:xlink="http://www.w3.org/1999/xlink" width="200" height="200"><defs><style type="text/css"></style></defs><path d="M510.444053 329.129825c-121.021499 0-219.176624 98.155125-219.176625 219.176625v269.288039h441.51562V548.30645c0-121.021499-98.155125-219.176624-219.176624-219.176625h-3.162371zM255.994831 460.368215c3.892149-19.339114-8.635705-38.191709-27.974819-42.083858l-103.3852-20.79867c-19.339114-3.892149-38.191709 8.635705-42.083858 27.974819-0.851408 4.257038-0.851408 8.392446-0.364889 12.406224 2.189334 14.473928 13.136002 26.636893 28.339708 29.677634l103.3852 20.79867c19.460744 3.892149 38.191709-8.635705 42.083858-27.974819zM232.27705 220.879439l65.801639 82.343272c12.284594 15.446965 34.786079 17.879558 50.233044 5.594963 15.446965-12.284594 17.879558-34.786079 5.594964-50.233044L288.105058 176.362988c-12.284594-15.446965-34.786079-17.879558-50.233045-5.594963-10.33852 8.270816-14.838817 21.041929-13.014372 33.326523 0.973037 5.959853 3.40563 11.798076 7.419409 16.784891z m284.248485 31.13719c19.704003 0.486519 36.124005-15.203706 36.488894-34.907709l-0.243259-105.452904c0.486519-19.704003-15.203706-36.124005-34.907709-36.488894-19.704003-0.486519-36.124005 15.203706-36.610524 34.907709l0.24326 105.331274c0 2.067704 0.12163 4.257038 0.364889 6.203112 2.675852 17.028151 17.028151 30.042523 34.664449 30.407412z m165.294691 64.706972c14.838817 13.014372 37.340302 11.554816 50.354674-3.16237l69.693787-79.180901c13.014372-14.838817 11.554816-37.340302-3.16237-50.354674-14.838817-13.014372-37.340302-11.554816-50.354674 3.162371L678.657855 266.368927c-7.297779 8.270816-9.973631 18.852595-8.514075 28.947856 1.094667 7.905927 5.108445 15.568595 11.676446 21.406818z m259.922556 129.049056c-2.919112-19.460744-21.163559-32.961634-40.624302-29.920893l-104.236608 15.811854c-19.460744 2.919112-32.961634 21.163559-29.920893 40.624302 2.919112 19.460744 21.163559 32.961634 40.745932 29.920893l104.236607-15.933483c19.339114-2.797482 32.718375-20.920299 29.799264-40.502673zM810.747652 899.329612c0 28.096449-22.744744 50.841193-50.841193 50.841192H252.95409c-28.096449 0-50.841193-22.744744-50.841193-50.841192 0-28.096449 22.744744-50.841193 50.841193-50.841193h506.83074c28.218078-0.12163 50.962822 22.744744 50.962822 50.841193z" fill="#C01922" p-id="6019"></path></svg>