<?xml version="1.0" standalone="no"?><!DOCTYPE svg PUBLIC "-//W3C//DTD SVG 1.1//EN" "http://www.w3.org/Graphics/SVG/1.1/DTD/svg11.dtd"><svg t="1505439221513" class="icon" style="" viewBox="0 0 1024 1024" version="1.1" xmlns="http://www.w3.org/2000/svg" p-id="1891" xmlns:xlink="http://www.w3.org/1999/xlink" width="200" height="200"><defs><style type="text/css"></style></defs><path d="M64.085 62.752c148.353 0 295.041 0 444.432 0 0 298.936 0 596.874 0 896.964-147.338 0-294.692 0-444.432 0C64.085 662.282 64.085 364.265 64.085 62.752zM116.086 285.181c40.923 0 77.098 0 114.211 0 0-37.925 0-73.439 0-113.141-34.723 0-68.329-0.547-101.87 0.68-4.286 0.156-11.607 9.442-11.79 14.697C115.528 219.26 116.086 251.157 116.086 285.181zM344.332 287.24c33.463 0 66.039 0.696 98.518-0.731 4.991-0.221 13.352-10.008 13.661-15.719 1.458-27.106 1.63-54.394-0.077-81.471-0.381-6.135-9.817-16.426-15.511-16.72-31.559-1.644-63.255-0.788-96.591-0.788C344.332 211.296 344.332 247.397 344.332 287.24zM231.501 736.389c0-34.067 1.016-64.907-0.856-95.574-0.381-6.197-11.348-16.268-18.019-16.768-26.119-1.957-52.514-1.579-78.711-0.212-6.074 0.317-16.66 7.744-16.858 12.262-1.447 33.218-0.779 66.528-0.779 100.292C156.424 736.389 191.848 736.389 231.501 736.389zM344.725 623.288c0 39.979 0 75.975 0 111.832 38.179 0 74.144 0 112.439 0 0-33.254 0.872-64.142-0.762-94.894-0.311-5.914-10.204-15.861-16.092-16.174C409.542 622.418 378.63 623.288 344.725 623.288zM229.988 398.263c-34.926 0-68.384-0.433-101.803 0.558-4.097 0.122-11.287 7.772-11.419 12.093-0.956 33.234-0.525 66.506-0.525 98.976 40.896 0 76.884 0 113.748 0C229.988 472.272 229.988 437.117 229.988 398.263zM457.153 398.057c-36.319 0-68.042-0.429-99.729 0.453-4.864 0.135-13.617 6.165-13.722 9.68-1.043 34.184-0.624 68.412-0.624 104.076 34.696 0 64.741 1.022 94.615-0.775 6.792-0.409 18.211-10.257 18.587-16.312C458.184 464.461 457.153 433.565 457.153 398.057zM679.426 737.982c0 74.725 0 147.695 0 222.23-37.064 0-70.629 0-106.797 0 0-165.856 0-331.894 0-500.468 127.945 0 256.314 0 387.121 0 0 166.138 0 332.188 0 500.181-34.707 0-68.965 0-106.57 0 0-73.773 0-146.75 0-221.943C794.879 737.982 739.84 737.982 679.426 737.982zM571.324 395.524c0-17.363 0-32.113 0-49.126 129.613 0 257.979 0 388.59 0 0 16.024 0 31.404 0 49.126C831.004 395.524 702.623 395.524 571.324 395.524z" p-id="1892"></path></svg>