<?xml version="1.0" standalone="no"?><!DOCTYPE svg PUBLIC "-//W3C//DTD SVG 1.1//EN" "http://www.w3.org/Graphics/SVG/1.1/DTD/svg11.dtd"><svg t="1505984790246" class="icon" style="" viewBox="0 0 1024 1024" version="1.1" xmlns="http://www.w3.org/2000/svg" p-id="1829" xmlns:xlink="http://www.w3.org/1999/xlink" width="200" height="200"><defs><style type="text/css"></style></defs><path d="M704 32 320 32l0 64L128 96c-35.328 0-64 28.608-64 64l0 64 896 0 0-64c0-35.392-28.608-64-64-64l-192 0L704 32z" p-id="1830"></path><path d="M128 352l0 64 0 512c0 35.392 28.672 64 64 64l640 0c35.392 0 64-28.608 64-64l0-512 0-64 0-64L128 288 128 352zM256 864l0-448 128 0 0 448L256 864zM448 864l0-448 128 0 0 448L448 864zM768 864l-128 0 0-448 128 0L768 864z" p-id="1831"></path></svg>