<?xml version="1.0" standalone="no"?><!DOCTYPE svg PUBLIC "-//W3C//DTD SVG 1.1//EN" "http://www.w3.org/Graphics/SVG/1.1/DTD/svg11.dtd"><svg t="1507777748286" class="icon" style="" viewBox="0 0 1024 1024" version="1.1" xmlns="http://www.w3.org/2000/svg" p-id="1853" xmlns:xlink="http://www.w3.org/1999/xlink" width="128" height="128"><defs><style type="text/css"></style></defs><path d="M304.504 813.504l-141-31.352V625.504l141 31.352v156.648z m47 0l141-31.352V625.504l-141 31.352v156.648zM328 531.504l-164.504 47L328 625.504l164.504-47L328 531.504z m352.504 125.344l-141-31.352v156.648l141 31.352V656.848z m47 156.656l141-31.352V625.504l-141 31.352v156.648zM704 531.504l-164.504 47L704 625.504l164.504-47L704 531.504zM492.504 327.848l-141-31.352v156.648l141 31.352V327.848z m47 156.656l141-31.352V296.504l-141 31.352v156.648zM516 202.504l-164.504 47L516 296.504l164.504-47L516 202.504z" p-id="1854"></path></svg>