<?xml version="1.0" standalone="no"?><!DOCTYPE svg PUBLIC "-//W3C//DTD SVG 1.1//EN" "http://www.w3.org/Graphics/SVG/1.1/DTD/svg11.dtd"><svg t="1505129949651" class="icon" style="" viewBox="0 0 1024 1024" version="1.1" xmlns="http://www.w3.org/2000/svg" p-id="1017" xmlns:xlink="http://www.w3.org/1999/xlink" width="128" height="128"><defs><style type="text/css"></style></defs><path d="M511.992123 75.453046c-247.043938 0-448.023631 200.983631-448.023631 448.023631 0 247.043938 200.979692 448.059077 448.023631 448.059077 247.059692 0 448.043323-201.015138 448.043323-448.059077 0-247.04-200.979692-448.023631-448.043323-448.023631z m0 860.215139c-227.268923 0-412.175754-184.906831-412.175754-412.191508S284.7232 111.281231 511.992123 111.281231c227.288615 0 412.195446 184.910769 412.195446 412.195446s-184.906831 412.191508-412.195446 412.191508z" p-id="1018" fill="#515151"></path><path d="M636.368738 317.483323c-13.902769-6.821415-30.649108-1.185477-37.521723 12.461292-6.876554 13.638892-1.189415 30.231631 12.610954 37.005785 76.6976 37.624123 124.297846 113.494646 124.297846 197.947077 0 121.816615-100.367754 220.892554-223.680984 220.892554-123.392 0-223.736123-99.075938-223.736123-220.892554 0-84.452431 47.596308-160.322954 124.297846-197.947077 13.824-6.770215 19.483569-23.362954 12.583384-37.005785-6.872615-13.646769-23.595323-19.282708-37.494153-12.461292-95.7952 47.033108-155.332923 141.820062-155.332923 247.410215 0 152.256985 125.459692 276.137354 279.681969 276.137354 154.171077 0 279.6032-123.880369 279.6032-276.137354-0.003938-105.590154-59.490462-200.377108-155.309293-247.410215z m-124.297846 192.208739c15.454523 0 27.959138-12.351015 27.959139-27.651939V233.550769c0-15.245785-12.504615-27.5968-27.959139-27.5968-15.505723 0-27.986708 12.351015-27.986707 27.5968v248.493293c0 15.296985 12.484923 27.648 27.986707 27.648z" p-id="1019" fill="#515151"></path></svg>