<?xml version="1.0" standalone="no"?><!DOCTYPE svg PUBLIC "-//W3C//DTD SVG 1.1//EN" "http://www.w3.org/Graphics/SVG/1.1/DTD/svg11.dtd"><svg t="1504763364107" class="icon" style="" viewBox="0 0 1024 1024" version="1.1" xmlns="http://www.w3.org/2000/svg" p-id="2228" xmlns:xlink="http://www.w3.org/1999/xlink" width="200" height="200"><defs><style type="text/css"></style></defs><path d="M144.8 140.3h746.3v746.3H144.8z" fill="#EDF5F9" p-id="2229"></path><path d="M927.3 175.8c0-42-34.2-76.1-76.1-76.1h-679c-42 0-76.1 34.2-76.1 76.1v166c0 16.4 5.3 32.2 15 45.2-9.7 13-15 28.9-15 45.4v166c0 16.4 5.3 32.2 15 45.2-9.7 13-15 28.8-15 45.2v166c0 42 34.2 76.1 76.1 76.1H851c42 0 76.1-34.2 76.1-76.1v-166c0-16.4-5.3-32.2-15.1-45.3 9.8-13.2 15.1-29 15.1-45.2v-166c0-16.4-5.3-32.2-15.1-45.3 9.8-13.2 15.1-29 15.1-45.2l0.2-166m-62 167.8c-0.9 7-6.9 12.4-14.2 12.4h-679c-7.9 0-14.3-6.4-14.3-14.3v-166c0-7.9 6.4-14.3 14.3-14.3H851c7.9 0 14.3 6.4 14.3 14.3v167.9m-707.4 88.7c0-7.9 6.4-14.3 14.3-14.3H851c7.9 0 14.3 6.4 14.3 14.3V600c-0.9 7-6.9 12.4-14.2 12.4h-679c-7.9 0-14.3-6.4-14.3-14.3l0.1-165.8m0 256.4c0-7.9 6.4-14.3 14.3-14.3H851c7.9 0 14.3 6.4 14.3 14.3v167.9c-0.9 7-6.9 12.4-14.2 12.4h-679c-7.9 0-14.3-6.4-14.3-14.3l0.1-166" fill="#144A8A" p-id="2230"></path><path d="M775.7 223.9H577.9c-18.3 0-33.2 14.9-33.2 33.2 0 18.3 14.9 33.2 33.2 33.2h197.8c18.3 0 33.2-14.9 33.2-33.2 0-18.3-14.9-33.2-33.2-33.2M577.9 548.4h197.8c18.3 0 33.2-14.9 33.2-33.2 0-18.3-14.9-33.2-33.2-33.2H577.9c-18.3 0-33.2 14.9-33.2 33.2 0 18.3 14.9 33.2 33.2 33.2M577.9 806.6h197.8c18.3 0 33.2-14.9 33.2-33.2 0-18.3-14.9-33.2-33.2-33.2H577.9c-18.3 0-33.2 14.9-33.2 33.2 0 18.3 14.9 33.2 33.2 33.2M224.1 257c0 20.7 16.8 37.4 37.4 37.4 20.7 0 37.4-16.8 37.4-37.4 0-20.7-16.8-37.4-37.4-37.4-20.7 0-37.4 16.8-37.4 37.4M348.8 257c0 20.7 16.8 37.4 37.4 37.4 20.7 0 37.4-16.8 37.4-37.4 0-20.7-16.8-37.4-37.4-37.4-20.6 0-37.4 16.8-37.4 37.4M224.1 510.7c0 20.7 16.8 37.4 37.4 37.4 20.7 0 37.4-16.8 37.4-37.4 0-20.7-16.8-37.4-37.4-37.4-20.7-0.1-37.4 16.7-37.4 37.4M348.8 510.7c0 20.7 16.8 37.4 37.4 37.4 20.7 0 37.4-16.8 37.4-37.4 0-20.7-16.8-37.4-37.4-37.4-20.6-0.1-37.4 16.7-37.4 37.4M224.1 768.4c0 20.7 16.8 37.4 37.4 37.4 20.7 0 37.4-16.8 37.4-37.4 0-20.7-16.8-37.4-37.4-37.4-20.7 0-37.4 16.8-37.4 37.4M348.8 768.4c0 20.7 16.8 37.4 37.4 37.4 20.7 0 37.4-16.8 37.4-37.4 0-20.7-16.8-37.4-37.4-37.4-20.6 0-37.4 16.8-37.4 37.4" fill="#9FC8E2" p-id="2231"></path></svg>